<svg xmlns="http://www.w3.org/2000/svg" version="1.0" width="1800" height="1800" viewBox="0 0 1800 1800" preserveAspectRatio="xMidYMid meet"><default:g xmlns:default="http://www.w3.org/2000/svg" transform="translate(0.000000,1800.000000) scale(0.040000,-0.040000)" fill="#000000" stroke="none"><default:path d="M27216 40858 c-10 -11 -92 -16 -182 -12 -149 7 -168 2 -224 -59 -46 -50 -77 -63 -122 -52 -33 8 -67 4 -75 -10 -26 -41 -193 -29 -243 17 -45 40 -48 40 -62 -14 -10 -39 -26 -51 -55 -39 -75 31 -288 10 -337 -34 -32 -29 -91 -43 -190 -43 -89 0 -162 -15 -188 -37 -24 -20 -92 -36 -150 -37 -58 0 -125 -17 -150 -37 -24 -21 -92 -37 -150 -38 -58 0 -126 -17 -150 -38 -27 -22 -89 -36 -154 -33 -86 3 -115 -6 -135 -45 -22 -39 -43 -46 -110 -33 -65 12 -90 6 -108 -28 -16 -29 -57 -44 -122 -46 -84 -2 -96 -10 -89 -56 5 -39 -12 -61 -63 -81 -38 -15 -89 -41 -112 -58 -34 -25 -51 -22 -89 12 -63 57 -98 54 -132 -9 -17 -33 -42 -46 -67 -37 -22 8 -60 -3 -85 -26 -24 -22 -80 -43 -123 -45 -46 -2 -88 -22 -103 -48 -16 -28 -41 -39 -71 -29 -32 10 -56 -3 -76 -39 -23 -44 -43 -51 -112 -38 -69 13 -89 6 -112 -36 -20 -37 -43 -48 -77 -37 -31 10 -53 2 -63 -24 -9 -23 -45 -39 -88 -39 -39 0 -72 -11 -72 -25 0 -14 23 -25 50 -25 33 0 50 -17 50 -50 0 -61 -112 -71 -134 -12 -21 53 -85 46 -117 -14 -18 -35 -42 -47 -74 -36 -32 10 -56 -2 -75 -38 -19 -36 -43 -48 -75 -37 -32 10 -56 -2 -75 -38 -19 -36 -43 -48 -75 -37 -32 10 -56 -2 -75 -39 -18 -33 -43 -47 -68 -38 -23 9 -59 -6 -87 -36 -27 -28 -60 -44 -74 -35 -14 9 -59 -21 -100 -66 -41 -44 -99 -82 -129 -84 -38 -2 -52 -17 -47 -49 17 -97 -81 -151 -109 -60 -17 53 -21 52 -99 -38 -52 -61 -94 -89 -119 -79 -25 9 -50 -5 -68 -38 -18 -35 -43 -49 -72 -39 -30 9 -67 -14 -117 -74 -48 -58 -87 -83 -115 -74 -27 8 -53 -6 -71 -40 -18 -33 -43 -47 -68 -38 -57 22 -157 -81 -157 -162 0 -85 -56 -133 -136 -118 -50 9 -66 -2 -87 -60 -21 -61 -35 -70 -86 -57 -33 8 -68 3 -77 -12 -9 -15 -35 -27 -57 -27 -22 0 -77 -41 -121 -91 -51 -57 -95 -86 -119 -77 -47 19 -128 -69 -129 -140 0 -34 -19 -57 -50 -63 -28 -5 -75 -31 -104 -58 -29 -27 -70 -46 -91 -41 -21 4 -90 -47 -152 -113 -65 -68 -127 -113 -142 -104 -17 10 -172 -130 -373 -337 -190 -195 -361 -351 -380 -347 -51 12 -210 -153 -231 -238 -13 -54 -29 -68 -64 -59 -56 15 -210 -139 -233 -232 -9 -36 -170 -211 -379 -412 -200 -192 -364 -368 -364 -392 0 -23 -34 -76 -75 -117 -41 -41 -75 -94 -75 -117 0 -23 -63 -104 -141 -179 -112 -108 -142 -154 -146 -223 -6 -101 -19 -117 -94 -122 -38 -3 -59 -23 -65 -60 -4 -31 -58 -103 -118 -160 -61 -57 -111 -117 -111 -132 0 -60 -78 -181 -125 -193 -28 -7 -50 -33 -50 -57 0 -25 -18 -65 -41 -90 -38 -41 -38 -49 0 -107 44 -66 54 -139 21 -139 -11 0 -32 31 -46 69 l-26 69 -45 -107 c-24 -59 -65 -119 -91 -133 -26 -13 -47 -39 -47 -56 0 -55 -201 -425 -249 -459 -28 -20 -42 -51 -34 -80 7 -29 -7 -61 -36 -81 -35 -25 -49 -68 -52 -156 -6 -148 -18 -171 -87 -161 -45 6 -57 -8 -67 -80 -7 -48 -42 -144 -77 -213 -36 -68 -60 -138 -55 -154 6 -16 -12 -42 -40 -56 -34 -18 -49 -51 -48 -102 2 -41 -16 -96 -39 -121 -23 -26 -35 -64 -27 -86 9 -25 -5 -50 -38 -67 -43 -24 -50 -44 -37 -113 13 -68 6 -89 -35 -111 -35 -18 -50 -51 -49 -102 2 -41 -16 -96 -39 -121 -45 -50 -32 -79 38 -79 57 0 61 -46 6 -67 -96 -37 -166 -130 -149 -197 11 -47 4 -75 -24 -96 -29 -21 -43 -76 -48 -184 -3 -86 -22 -172 -41 -196 -20 -24 -36 -91 -36 -149 -1 -62 -18 -126 -41 -153 -27 -30 -41 -94 -41 -190 -1 -82 -15 -163 -34 -185 -18 -22 -33 -102 -33 -182 0 -90 -14 -160 -38 -189 -29 -34 -37 -114 -37 -340 0 -202 -10 -304 -32 -326 -45 -45 -45 -2172 0 -2217 20 -20 31 -117 31 -289 0 -192 10 -269 38 -303 24 -28 38 -98 38 -188 0 -84 15 -160 35 -185 59 -70 56 -560 -2 -591 -25 -14 -46 -46 -46 -73 0 -46 -162 -225 -204 -225 -11 0 -21 -11 -21 -25 0 -14 16 -25 35 -25 38 0 71 -61 47 -85 -9 -8 -35 -15 -60 -15 -56 0 -172 -106 -172 -157 0 -22 -34 -73 -75 -114 -41 -41 -75 -92 -75 -113 0 -21 -11 -45 -25 -53 -14 -9 -25 -49 -25 -89 0 -57 -14 -76 -62 -89 -49 -12 -63 -32 -63 -86 0 -39 -11 -78 -25 -86 -14 -9 -25 -48 -25 -88 0 -88 -47 -123 -88 -66 -42 57 -62 51 -62 -20 0 -34 -33 -93 -75 -135 -41 -41 -75 -92 -75 -113 0 -20 -34 -71 -75 -112 -41 -41 -75 -82 -75 -90 0 -8 -36 -88 -79 -178 -61 -124 -73 -169 -50 -192 50 -50 35 -101 -25 -86 -77 20 -146 -24 -146 -94 0 -32 -17 -65 -37 -73 -21 -8 -38 -28 -38 -45 0 -60 -286 -600 -330 -624 -25 -13 -45 -45 -45 -71 0 -27 -11 -55 -25 -63 -50 -31 -25 -88 38 -88 75 0 81 -38 12 -75 -27 -15 -50 -43 -50 -63 0 -55 -53 -45 -68 13 -15 59 -57 67 -57 11 0 -21 -32 -103 -71 -181 -39 -79 -66 -156 -61 -172 6 -16 -14 -42 -43 -58 -36 -19 -48 -43 -37 -75 10 -32 -2 -56 -38 -75 -36 -19 -48 -43 -37 -75 10 -32 -2 -56 -38 -75 -36 -19 -48 -43 -37 -75 10 -32 -2 -56 -39 -75 -33 -18 -47 -43 -38 -68 9 -24 -5 -53 -37 -76 -48 -33 -49 -39 -11 -81 43 -48 16 -85 -63 -87 -22 0 -44 -39 -57 -100 -11 -55 -27 -132 -35 -170 -7 -38 -34 -80 -59 -94 -29 -15 -45 -51 -44 -98 2 -41 -11 -91 -28 -111 -17 -20 -35 -73 -40 -118 -6 -44 -22 -92 -36 -106 -14 -14 -26 -51 -26 -83 0 -31 -23 -68 -52 -84 -40 -22 -48 -43 -36 -99 10 -41 -1 -121 -24 -189 -22 -64 -33 -138 -25 -164 10 -31 1 -53 -27 -63 -65 -26 -161 -123 -161 -165 0 -21 -16 -51 -36 -68 -19 -16 -35 -62 -33 -103 1 -40 -16 -93 -37 -117 -21 -24 -38 -75 -38 -113 0 -38 -19 -90 -42 -116 -29 -32 -36 -67 -24 -115 13 -51 6 -78 -24 -100 -24 -18 -46 -78 -52 -149 -6 -65 -29 -138 -51 -162 -21 -24 -32 -61 -24 -83 9 -25 -3 -44 -37 -55 -66 -21 -67 -53 -2 -70 59 -16 65 -74 13 -118 -21 -17 -38 -65 -38 -106 0 -42 -22 -112 -49 -156 -54 -86 -27 -238 42 -238 18 0 32 -22 32 -50 0 -27 -11 -50 -25 -50 -14 0 -25 10 -25 21 0 36 -121 155 -135 133 -7 -11 -11 -67 -9 -123 3 -66 -11 -120 -37 -149 -30 -33 -40 -85 -37 -186 4 -100 -6 -154 -35 -187 -30 -34 -41 -95 -40 -228 0 -135 -10 -193 -41 -227 -23 -26 -41 -87 -41 -138 0 -50 0 -132 0 -182 0 -50 -13 -107 -29 -127 -26 -31 -37 -178 -45 -574 -1 -44 -12 -87 -26 -96 -34 -21 -34 -2403 0 -2424 14 -9 25 -52 26 -96 4 -310 18 -467 43 -497 30 -37 34 -68 32 -238 -2 -82 9 -111 51 -133 43 -23 50 -44 38 -105 -11 -55 -3 -91 28 -125 26 -28 44 -90 45 -152 0 -58 15 -129 31 -159 17 -30 31 -83 31 -118 0 -34 17 -72 38 -84 21 -11 76 -79 123 -151 85 -129 86 -130 33 -158 l-54 -29 55 -44 c32 -26 49 -60 41 -82 -9 -24 6 -49 39 -67 30 -16 48 -44 41 -62 -7 -18 2 -53 20 -79 18 -26 41 -86 51 -134 11 -48 52 -117 92 -153 45 -41 67 -80 57 -104 -9 -25 5 -52 37 -72 29 -18 52 -57 52 -87 0 -36 20 -59 62 -69 38 -10 68 -40 78 -78 9 -38 33 -62 61 -62 62 0 85 -44 47 -90 -23 -28 -24 -44 -2 -66 16 -16 29 -48 29 -70 0 -23 63 -100 139 -171 77 -71 151 -165 166 -208 25 -71 30 -74 60 -34 17 24 44 36 60 27 20 -13 17 -30 -10 -61 -36 -39 -31 -50 54 -132 51 -49 124 -96 162 -105 37 -8 81 -40 96 -70 56 -104 182 -197 261 -194 111 6 113 4 85 -68 -22 -59 -15 -77 69 -163 52 -53 109 -90 128 -83 19 7 69 -26 112 -75 66 -74 89 -85 154 -73 90 16 277 -149 277 -246 0 -43 18 -58 87 -69 48 -9 137 -40 198 -70 61 -30 131 -54 156 -54 24 0 57 -23 72 -51 18 -35 42 -47 74 -36 32 10 56 -2 75 -38 19 -36 43 -48 75 -37 32 10 56 -2 74 -37 33 -61 70 -65 127 -13 53 48 124 23 124 -44 0 -45 11 -49 103 -34 79 13 115 7 150 -26 61 -54 60 -84 -3 -84 -27 0 -50 11 -50 25 0 14 -18 25 -40 25 -32 0 -28 -13 19 -62 37 -39 86 -62 135 -63 42 0 90 -14 107 -31 17 -17 64 -32 105 -34 41 -2 93 -19 115 -38 23 -19 73 -36 113 -38 39 -2 90 -19 113 -37 22 -19 88 -35 146 -35 58 -1 126 -17 150 -37 24 -21 76 -39 116 -41 39 -2 90 -19 113 -37 23 -19 76 -35 118 -36 262 -5 289 -12 375 -87 51 -45 92 -65 102 -50 33 53 282 -3 325 -74 9 -14 103 -25 209 -25 112 0 206 -12 223 -29 16 -16 124 -30 253 -33 152 -3 239 -16 268 -40 45 -37 83 -39 1248 -39 1164 0 1202 2 1247 39 29 24 116 37 266 40 134 3 238 17 260 36 22 18 119 33 232 35 184 3 194 6 187 57 -9 65 90 88 400 96 121 3 208 18 234 40 23 19 90 34 148 35 58 0 125 17 150 37 24 21 92 37 150 38 58 0 124 16 148 36 23 19 75 34 116 32 50 -1 83 15 101 49 22 41 43 48 111 35 69 -13 89 -6 113 37 15 29 43 47 61 40 18 -7 54 3 79 22 26 20 79 36 119 36 52 1 97 27 154 92 l81 91 31 -58 31 -59 46 57 c25 31 58 49 72 40 15 -9 44 -2 65 15 73 60 267 142 311 130 28 -7 55 8 73 42 20 36 44 49 75 39 26 -8 54 -4 62 9 14 22 256 145 414 209 l63 26 -63 16 c-34 9 -62 33 -62 53 0 53 84 60 137 12 47 -43 150 -17 150 38 0 13 27 24 61 24 34 0 68 11 77 25 8 14 36 25 62 25 26 0 71 34 100 75 29 41 69 75 87 75 53 0 288 125 288 153 0 14 20 19 45 11 49 -15 178 97 147 127 -28 28 36 84 97 84 70 0 311 118 311 153 0 14 20 19 45 11 32 -10 70 13 125 75 43 49 91 82 106 73 16 -10 61 17 102 59 41 42 100 79 130 84 41 6 53 22 46 65 -6 45 9 64 69 87 43 16 84 50 92 75 11 37 30 43 91 29 66 -14 74 -11 60 27 -22 57 26 112 98 112 32 0 65 11 74 25 8 14 35 25 59 25 36 0 160 120 304 294 14 17 51 31 81 31 35 0 114 62 221 175 92 96 187 175 212 175 24 0 70 24 102 54 53 50 54 56 14 87 -41 32 -41 36 5 72 27 20 75 37 107 37 38 0 116 57 228 169 94 93 200 191 236 219 42 32 66 74 67 119 1 63 9 69 83 64 96 -6 143 17 143 71 0 51 250 300 313 312 37 7 53 35 62 109 10 79 24 101 68 107 54 8 257 181 257 219 0 10 63 80 140 154 124 120 139 145 126 210 -18 88 47 131 96 64 28 -37 35 -36 84 16 30 32 54 78 54 102 0 24 62 105 138 179 76 74 137 156 137 184 0 28 23 62 50 77 29 16 50 52 50 88 0 70 60 85 94 24 17 -30 31 -18 66 55 24 52 66 109 92 127 26 19 48 56 48 83 0 27 17 56 38 64 20 8 37 34 37 58 0 44 73 126 113 126 11 0 40 18 64 39 41 37 41 44 2 112 -51 90 -2 172 56 93 30 -40 36 -39 86 14 30 32 54 73 54 91 0 18 25 58 56 89 101 100 169 191 169 225 0 18 40 70 89 116 122 113 199 263 160 310 -48 57 -10 115 63 96 58 -14 69 -3 125 125 34 77 73 140 86 140 30 0 157 245 162 313 3 35 19 48 59 44 45 -5 56 6 56 57 0 92 64 202 127 219 38 10 50 26 39 55 -11 28 9 64 59 107 41 36 75 91 75 120 0 30 17 61 38 69 20 8 37 43 37 78 0 35 11 63 25 63 14 0 49 51 78 113 29 62 61 118 72 124 10 7 13 40 6 74 -7 39 8 86 41 129 29 37 53 82 53 101 0 20 23 31 56 27 45 -4 57 7 57 55 0 33 14 65 31 71 17 6 31 36 31 68 0 32 17 64 38 72 20 8 37 42 37 75 0 33 17 67 38 75 20 8 37 42 37 75 0 33 17 67 38 75 20 8 37 42 37 75 0 33 17 67 38 75 20 8 37 40 37 72 0 31 22 70 48 87 32 20 43 47 34 83 -8 32 7 80 40 125 29 39 53 82 53 94 0 12 33 82 73 155 40 73 67 148 60 166 -7 19 5 41 27 49 22 8 40 40 40 69 0 30 21 93 46 141 26 48 42 102 36 119 -6 17 7 38 28 46 22 9 40 41 40 72 0 36 18 62 50 70 65 17 64 59 -2 76 -69 18 -54 94 26 134 34 17 70 53 80 82 11 28 37 51 58 51 21 0 38 11 38 25 0 14 -22 25 -50 25 -37 0 -50 17 -50 66 0 51 7 59 33 38 56 -47 197 202 154 272 -9 14 -3 42 12 61 16 19 34 70 39 114 6 44 23 94 38 112 15 19 32 70 37 115 6 44 22 92 36 106 14 14 26 66 26 115 0 49 22 130 48 180 29 54 43 113 34 147 -10 37 -1 67 26 86 45 33 61 276 29 447 -14 77 -11 95 16 86 19 -6 41 -44 49 -85 29 -143 53 4 25 155 -15 80 -18 154 -6 166 47 47 -3 146 -99 196 -103 52 -114 71 -69 116 36 36 8 79 -68 108 -33 12 -60 37 -61 55 0 38 -168 119 -246 119 -57 0 -228 -146 -228 -195 0 -14 -21 -33 -47 -42 -27 -8 -54 -47 -62 -91 -13 -62 -25 -73 -66 -60 -72 23 -150 -8 -150 -61 0 -25 -17 -59 -37 -76 -21 -17 -38 -51 -38 -76 0 -25 -34 -79 -75 -120 -41 -41 -75 -84 -75 -95 0 -49 -139 -290 -180 -312 -56 -30 -59 -112 -4 -142 51 -29 23 -80 -42 -80 -40 0 -49 -18 -49 -101 0 -94 -3 -99 -52 -73 -67 36 -123 14 -123 -48 0 -27 -34 -81 -75 -119 -47 -45 -70 -87 -61 -113 8 -27 -6 -53 -38 -70 -28 -15 -51 -49 -51 -75 0 -26 -34 -81 -75 -122 -41 -41 -75 -92 -75 -112 0 -20 -35 -71 -79 -113 -73 -72 -76 -81 -46 -154 35 -85 11 -139 -29 -66 -25 43 -29 42 -86 -11 -33 -31 -60 -76 -60 -100 0 -24 -34 -78 -75 -119 -41 -41 -75 -91 -75 -111 0 -20 -39 -78 -88 -129 -67 -72 -84 -106 -72 -154 18 -69 -25 -135 -89 -135 -60 0 -210 -140 -188 -176 10 -17 -17 -61 -66 -106 -50 -45 -81 -95 -77 -122 6 -34 -8 -46 -54 -46 -64 0 -191 -181 -191 -273 0 -24 -15 -63 -33 -88 -32 -43 -35 -43 -50 -3 -9 23 -29 35 -44 26 -14 -10 -20 -34 -12 -55 10 -26 -39 -90 -148 -193 -90 -85 -163 -175 -163 -200 0 -26 -220 -262 -519 -557 -302 -297 -515 -526 -511 -548 11 -52 -44 -112 -95 -104 -27 5 -208 -158 -497 -449 -250 -251 -465 -456 -478 -456 -13 0 -51 31 -86 68 l-64 69 1 2950 c1 2980 -1 3059 -68 3209 -61 136 -498 554 -580 554 -37 0 -80 12 -95 27 -19 19 -230 27 -655 24 -556 -3 -628 1 -628 36 0 22 -17 46 -37 54 -46 17 -50 76 -7 90 17 6 31 38 31 71 0 50 13 61 76 61 41 0 142 37 225 82 99 54 186 83 257 84 79 2 113 15 133 51 16 30 41 43 65 34 21 -8 53 -3 71 12 81 67 382 199 455 199 44 0 81 11 81 25 0 14 -23 25 -52 25 -79 0 -51 86 32 95 36 4 80 24 96 44 17 20 51 36 76 36 25 0 57 20 70 44 22 38 32 39 81 9 49 -30 60 -28 87 9 18 25 45 35 62 24 17 -10 47 3 70 34 43 55 264 180 318 180 17 0 74 52 126 115 84 102 103 114 174 102 91 -15 185 61 185 148 0 100 86 142 109 54 14 -53 21 -50 129 62 62 66 134 119 159 119 61 0 142 94 133 153 -6 35 13 56 65 74 40 14 86 53 101 87 22 47 47 61 113 61 74 0 107 24 251 181 91 100 165 201 165 224 0 24 23 55 50 70 27 15 50 43 50 63 0 21 11 37 25 37 14 0 25 -11 25 -25 0 -63 173 48 175 111 0 13 58 78 128 144 111 104 124 126 95 160 -41 49 65 140 187 160 56 10 79 30 94 86 10 41 57 108 103 150 47 42 120 150 164 241 51 107 122 202 204 275 68 61 125 131 125 155 0 25 28 71 63 103 34 32 62 82 62 112 0 29 12 53 26 53 15 0 43 40 63 88 21 49 65 113 99 142 40 35 57 70 48 98 -9 29 5 54 40 72 32 17 47 44 39 66 -18 46 70 223 120 242 22 8 36 44 35 87 -1 41 15 99 37 130 22 30 34 70 27 88 -7 18 10 45 37 60 34 18 50 51 49 99 -2 39 16 98 39 130 22 33 41 88 41 124 0 35 12 76 26 90 15 15 31 64 37 110 6 45 22 94 36 108 14 14 26 66 26 115 0 49 19 122 42 164 31 57 41 147 43 392 2 280 8 319 46 329 50 13 60 107 13 122 -22 8 -28 88 -22 303 5 190 -2 305 -20 326 -20 24 -21 54 -2 103 15 38 20 132 12 210 -8 77 -18 215 -22 307 -3 92 -19 182 -33 200 -15 18 -33 86 -40 152 -7 66 -25 135 -40 154 -16 18 -33 66 -39 105 -5 39 -31 117 -58 172 -27 55 -57 139 -67 187 -11 48 -32 103 -47 122 -16 20 -52 93 -82 163 -33 79 -82 147 -130 178 -45 28 -77 72 -78 102 -1 60 -74 135 -132 135 -44 0 -69 51 -69 139 0 85 -224 311 -308 311 -65 0 -111 73 -80 125 21 33 -2 32 -60 -5 -88 -55 -173 74 -98 149 22 22 13 35 -38 55 -71 27 -89 40 -233 170 -103 93 -121 97 -157 37 -24 -41 -28 -41 -64 5 -20 27 -31 68 -24 90 15 47 -48 111 -85 88 -14 -8 -32 -3 -40 11 -9 14 -39 25 -67 25 -27 0 -85 39 -128 88 -42 48 -96 87 -120 87 -23 0 -55 16 -72 36 -16 19 -62 35 -102 34 -40 -2 -89 11 -109 28 -20 17 -72 35 -116 40 -44 6 -94 23 -112 38 -19 15 -69 32 -113 37 -44 6 -95 23 -113 39 -19 15 -88 33 -154 40 -66 7 -133 23 -149 37 -35 29 -166 53 -269 50 -40 -2 -89 11 -109 27 -21 18 -127 30 -266 30 -165 1 -244 12 -275 38 -59 49 -851 67 -950 22 -50 -23 -72 -23 -95 0 -45 45 -260 37 -279 -10 -11 -29 -53 -39 -171 -40 -402 -3 -488 -10 -528 -43 -28 -23 -104 -35 -223 -35 -132 1 -193 -10 -227 -40 -33 -29 -87 -39 -187 -35 -101 3 -153 -7 -186 -37 -28 -25 -90 -42 -154 -43 -58 0 -124 -15 -145 -33 -21 -17 -71 -36 -110 -41 -39 -5 -105 -28 -146 -50 -54 -29 -109 -36 -192 -25 -96 12 -121 7 -141 -30 -18 -32 -51 -43 -113 -39 -104 7 -145 -36 -63 -67 57 -20 56 -21 -22 -62 -77 -40 -81 -39 -109 13 l-29 54 -43 -57 c-35 -46 -58 -54 -120 -40 -63 14 -83 8 -106 -35 -23 -43 -43 -50 -112 -37 -69 13 -89 6 -112 -38 -20 -37 -44 -49 -76 -38 -32 10 -56 -2 -76 -39 -23 -44 -43 -51 -112 -38 -69 13 -89 6 -112 -36 -19 -36 -43 -48 -75 -37 -32 10 -56 -2 -75 -38 -22 -42 -43 -49 -109 -36 -58 10 -91 3 -114 -25 -18 -21 -60 -39 -93 -39 -75 0 -78 -44 -3 -55 119 -16 63 -83 -65 -76 -101 5 -123 -2 -133 -42 -13 -51 -105 -86 -165 -63 -19 7 -49 -4 -67 -25 -18 -22 -53 -39 -78 -39 -26 0 -59 -23 -74 -51 -18 -35 -42 -47 -74 -36 -32 10 -56 -2 -75 -38 -19 -36 -43 -48 -75 -37 -32 10 -56 -2 -75 -38 -19 -36 -43 -48 -75 -37 -32 10 -56 -2 -75 -39 -18 -33 -43 -47 -68 -38 -52 20 -155 -76 -141 -131 15 -62 -180 -149 -244 -109 -67 42 -72 38 -72 -57 0 -105 -35 -131 -117 -87 -56 30 -66 28 -105 -23 -27 -36 -57 -51 -83 -41 -27 10 -51 -3 -70 -37 -18 -35 -43 -49 -72 -39 -27 8 -65 -9 -101 -47 l-57 -61 57 -30 c56 -30 55 -30 -29 -66 -46 -19 -112 -29 -146 -20 -48 12 -77 -3 -142 -77 -49 -55 -93 -84 -111 -73 -18 11 -63 -19 -113 -75 -46 -52 -95 -86 -110 -76 -35 21 -226 -166 -226 -222 0 -47 -52 -53 -94 -11 -28 28 -36 17 -93 -148 -6 -17 -33 -31 -58 -31 -50 0 -130 -73 -130 -119 0 -51 -57 -64 -89 -20 -30 40 -34 40 -61 -11 -18 -33 -43 -48 -67 -39 -47 18 -233 -154 -233 -216 0 -25 11 -45 25 -45 14 0 25 -17 25 -39 0 -30 -18 -35 -83 -23 -78 15 -83 11 -106 -78 -28 -110 -86 -145 -86 -51 0 109 -38 94 -194 -73 -92 -99 -164 -156 -186 -148 -19 7 -60 -13 -91 -46 l-56 -60 63 -42 c63 -41 88 -115 39 -115 -14 0 -25 11 -25 25 0 14 -45 21 -104 16 -89 -8 -123 -31 -250 -167 -140 -148 -151 -155 -213 -126 l-65 29 13 412 c9 276 24 425 45 450 19 22 35 131 39 265 5 132 21 242 39 264 17 20 29 71 26 112 -4 41 10 107 30 147 19 39 43 119 52 178 9 59 35 145 58 190 40 79 40 85 -1 108 -62 35 -55 89 19 137 34 23 69 67 77 100 8 32 31 71 50 87 19 16 35 52 35 80 0 27 17 62 37 78 21 16 40 78 45 145 4 64 15 125 25 135 10 10 18 44 18 76 0 32 22 69 51 85 32 17 46 43 38 69 -7 23 3 75 24 114 20 39 37 93 37 118 0 25 21 58 48 72 30 16 43 43 35 74 -8 31 5 57 39 75 31 17 45 43 36 66 -9 25 19 68 76 119 103 91 107 107 50 170 -49 55 -27 128 35 118 61 -11 161 86 142 136 -9 24 4 49 35 66 30 16 45 44 38 71 -8 30 18 69 77 115 92 74 96 116 13 116 -77 0 -57 42 27 59 41 8 82 35 91 59 9 25 37 71 62 104 25 33 46 80 46 105 0 25 40 77 89 116 48 38 110 117 136 176 26 58 60 106 75 106 15 0 41 32 57 71 28 65 93 144 240 293 50 51 54 67 27 99 -45 55 7 109 62 63 33 -27 58 -14 164 89 69 67 125 137 125 157 0 47 44 96 346 384 97 92 189 191 204 219 15 29 60 58 100 66 50 10 161 107 358 312 157 163 306 297 331 297 25 0 109 68 188 150 79 83 163 150 188 150 25 0 93 51 151 113 59 61 124 112 144 112 21 0 73 34 115 75 42 41 92 75 112 75 19 0 54 20 78 44 24 24 67 44 96 44 38 0 50 13 44 52 -8 62 48 116 111 105 28 -5 48 11 54 43 15 77 48 99 94 61 36 -30 46 -28 76 13 36 48 248 162 303 163 17 0 43 23 58 51 17 33 43 46 71 38 29 -10 69 14 121 73 51 57 92 83 117 73 23 -9 46 1 54 23 9 22 47 46 86 55 39 8 97 40 129 71 59 57 664 366 716 366 16 0 41 23 56 52 15 28 41 46 57 40 26 -9 105 22 217 87 21 12 54 28 75 35 21 8 54 25 75 38 117 71 267 132 317 128 35 -3 67 15 84 47 18 33 42 46 67 37 22 -8 60 4 86 27 25 23 79 41 119 40 41 -2 87 14 103 33 17 20 48 36 71 37 62 1 153 88 153 146 0 59 89 93 175 65 40 -12 64 -2 91 36 45 63 98 67 131 8 24 -41 27 -41 60 4 23 31 64 47 114 46 54 -2 87 13 105 46 14 26 46 48 71 48 25 0 81 18 124 39 43 22 90 32 105 23 15 -9 49 3 76 27 26 24 82 43 123 41 46 -1 87 16 107 45 18 25 54 44 80 42 31 -3 52 16 62 58 12 46 37 66 102 78 176 33 511 286 481 364 -7 19 7 57 31 83 35 39 38 57 14 85 -23 27 -23 40 0 54 17 10 40 0 53 -24 28 -50 70 -30 70 34 0 29 -34 60 -94 85 -171 72 -229 141 -118 141 34 0 62 11 62 25 0 14 -22 25 -48 25 -63 0 -129 66 -111 112 9 24 -14 40 -77 52 -49 9 -125 49 -167 89 -56 52 -104 73 -169 74 -50 1 -254 7 -454 13 -200 7 -372 4 -383 -7z m1169 -523 c103 -39 24 -154 -129 -188 -105 -23 -504 -132 -618 -168 -324 -102 -715 -240 -829 -293 -44 -20 -93 -36 -109 -36 -17 0 -86 -28 -155 -62 -68 -35 -138 -63 -155 -63 -17 0 -110 -39 -208 -87 -98 -49 -191 -88 -206 -88 -16 0 -79 -28 -141 -62 -61 -35 -123 -63 -136 -63 -42 0 -934 -431 -1016 -491 -44 -33 -94 -59 -113 -60 -18 0 -111 -45 -207 -99 -97 -55 -226 -127 -288 -162 -62 -35 -129 -74 -150 -87 -21 -13 -212 -127 -425 -254 -213 -126 -472 -288 -575 -360 -103 -72 -232 -159 -287 -195 -55 -36 -140 -94 -188 -130 -311 -231 -483 -363 -635 -485 -94 -77 -208 -168 -252 -202 -440 -344 -1378 -1275 -1700 -1687 -54 -69 -113 -142 -132 -163 -70 -77 -572 -776 -656 -914 -48 -79 -113 -182 -144 -229 -31 -46 -56 -93 -56 -104 0 -11 -34 -67 -75 -124 -41 -57 -75 -116 -75 -131 0 -15 -21 -58 -46 -94 -26 -37 -128 -235 -228 -441 -235 -488 -262 -550 -314 -710 -23 -73 -58 -163 -77 -200 -19 -36 -35 -85 -35 -109 0 -23 -29 -108 -64 -187 -35 -79 -70 -195 -78 -257 -7 -62 -35 -160 -62 -218 -27 -58 -59 -170 -71 -250 -11 -79 -39 -212 -61 -294 -21 -82 -51 -245 -65 -362 -15 -118 -38 -287 -51 -376 -95 -642 -143 -2094 -74 -2224 51 -95 143 -45 379 206 501 535 1871 1728 2431 2117 30 21 162 116 296 213 307 223 645 458 714 496 57 31 368 225 478 298 36 23 116 71 178 107 62 35 158 90 213 122 298 174 426 241 979 515 332 165 618 300 634 300 16 0 82 28 146 62 63 35 166 79 228 98 193 61 509 180 593 223 44 23 98 42 120 42 22 0 141 34 265 76 124 42 272 86 330 98 57 12 138 33 180 47 41 14 164 44 275 67 110 24 228 53 262 65 35 13 147 33 250 46 103 12 289 42 413 65 355 66 585 82 1187 83 570 0 737 -12 1075 -83 103 -22 233 -46 288 -54 104 -15 502 -138 673 -207 804 -328 1419 -839 1833 -1525 44 -74 81 -140 81 -147 0 -7 33 -81 73 -165 123 -258 200 -478 227 -645 14 -87 41 -237 62 -333 81 -390 73 -1146 -16 -1498 -14 -53 -40 -177 -58 -275 -54 -282 -157 -637 -225 -774 -35 -69 -63 -139 -63 -156 0 -16 -34 -98 -75 -181 -41 -83 -75 -165 -75 -181 0 -17 -31 -82 -69 -145 -38 -64 -96 -172 -129 -240 -32 -69 -83 -159 -113 -200 -30 -42 -83 -126 -119 -188 -67 -116 -560 -781 -700 -945 -322 -374 -1216 -1189 -1557 -1420 -647 -436 -969 -636 -1250 -778 -138 -69 -284 -143 -325 -165 -74 -38 -180 -88 -625 -295 -124 -57 -310 -135 -413 -173 -103 -38 -283 -104 -400 -148 -117 -44 -279 -96 -359 -116 -81 -20 -177 -52 -213 -72 -68 -37 -410 -132 -778 -215 -117 -27 -263 -65 -325 -85 -62 -20 -186 -43 -275 -53 -89 -9 -181 -26 -203 -37 -56 -29 -278 -68 -634 -111 -165 -20 -345 -47 -400 -61 -166 -41 -1880 -33 -2095 10 -99 19 -276 43 -393 52 -220 18 -518 76 -562 111 -14 11 -98 27 -187 37 -88 10 -228 45 -310 78 -82 34 -176 61 -207 61 -32 0 -143 34 -247 75 -103 41 -205 75 -226 75 -21 0 -80 22 -131 48 -51 27 -261 129 -467 228 -366 175 -733 396 -825 498 -45 51 -151 67 -203 32 -15 -10 -86 -130 -158 -267 -73 -136 -160 -293 -195 -347 -67 -106 -139 -239 -331 -604 -66 -124 -150 -282 -188 -350 -117 -211 -282 -547 -302 -613 -10 -34 -45 -104 -77 -156 -33 -51 -59 -103 -59 -116 0 -13 -41 -111 -90 -219 -200 -436 -236 -521 -376 -896 -62 -165 -132 -345 -157 -400 -54 -123 -147 -391 -181 -525 -14 -55 -58 -207 -96 -338 -185 -622 -225 -792 -352 -1500 -111 -618 -127 -802 -129 -1525 -2 -623 10 -796 80 -1112 15 -69 45 -210 68 -313 22 -103 54 -216 71 -250 17 -34 38 -107 48 -162 10 -56 45 -151 77 -213 32 -62 67 -141 76 -175 10 -34 45 -102 77 -150 32 -47 59 -97 59 -110 0 -37 148 -262 314 -477 233 -303 604 -639 941 -855 153 -97 747 -383 797 -383 15 0 58 -17 94 -38 69 -40 322 -129 604 -214 89 -27 213 -65 275 -85 62 -19 208 -54 325 -76 117 -22 291 -56 388 -76 1010 -208 2580 -122 3862 210 298 78 308 81 638 190 110 36 256 80 325 98 68 18 170 55 225 83 55 28 145 66 200 83 55 18 139 53 187 79 48 25 104 46 125 46 20 0 72 21 113 46 42 26 120 61 175 78 55 18 116 46 137 63 21 16 77 44 125 62 148 56 603 259 700 313 34 19 169 87 300 151 131 64 254 127 275 140 21 13 66 37 100 54 34 17 125 71 201 119 76 47 160 99 187 114 53 30 55 110 8 233 l-25 65 -54 -66 c-30 -36 -92 -77 -137 -93 -45 -15 -111 -50 -147 -78 -36 -28 -84 -51 -108 -51 -24 0 -71 -22 -104 -48 -75 -59 -668 -352 -713 -352 -17 0 -105 -39 -194 -88 -172 -92 -265 -108 -311 -53 -31 37 -44 9169 -14 9249 21 54 -114 50 1361 45 708 -2 1389 6 1513 18 348 34 348 34 328 -393 -9 -187 -17 -1892 -18 -3788 -2 -3099 2 -3450 37 -3470 47 -27 166 30 232 111 51 63 208 204 395 357 418 340 730 630 1401 1300 344 343 699 709 790 812 328 372 662 764 733 863 41 55 86 111 101 125 15 13 134 165 265 337 561 735 613 805 714 975 37 62 128 193 201 292 73 99 133 186 133 195 0 9 51 93 112 188 374 571 958 1693 1005 1928 21 107 117 149 185 81 48 -48 48 -54 8 -210 -22 -89 -66 -212 -97 -274 -31 -62 -63 -160 -72 -219 -9 -58 -43 -167 -76 -241 -33 -74 -68 -172 -78 -219 -10 -46 -46 -151 -81 -233 -35 -83 -72 -184 -83 -225 -29 -110 -159 -475 -235 -663 -422 -1040 -603 -1441 -914 -2025 -25 -48 -70 -138 -98 -200 -29 -62 -62 -129 -75 -150 -13 -21 -77 -138 -143 -260 -66 -122 -151 -274 -188 -337 -37 -64 -92 -160 -121 -215 -30 -56 -82 -136 -114 -180 -33 -44 -60 -85 -60 -92 0 -18 -143 -250 -269 -436 -58 -87 -106 -163 -106 -169 0 -16 -472 -708 -586 -858 -56 -74 -124 -166 -151 -205 -51 -70 -131 -176 -338 -445 -689 -895 -1781 -2069 -2525 -2715 -172 -150 -318 -279 -325 -288 -28 -38 -688 -560 -1023 -810 -424 -317 -771 -547 -1302 -862 -213 -127 -404 -241 -425 -254 -21 -13 -88 -46 -150 -74 -62 -29 -129 -62 -150 -74 -134 -79 -880 -433 -1112 -529 -220 -90 -511 -197 -536 -197 -17 0 -111 -32 -210 -71 -285 -112 -495 -181 -629 -209 -69 -14 -176 -40 -238 -58 -62 -17 -197 -51 -300 -74 -103 -23 -261 -59 -350 -80 -253 -61 -528 -107 -637 -108 -55 0 -190 -19 -300 -41 -303 -62 -2048 -64 -2388 -2 -131 23 -282 43 -337 43 -55 -1 -247 32 -425 72 -179 41 -382 85 -450 98 -69 14 -193 44 -275 67 -83 22 -179 46 -213 53 -94 17 -553 163 -625 198 -34 17 -96 38 -136 48 -106 25 -647 238 -675 266 -13 13 -39 23 -58 23 -19 0 -177 69 -352 154 -1273 620 -2099 1427 -2683 2620 -148 304 -182 387 -294 726 -29 89 -65 196 -80 238 -15 41 -37 125 -49 187 -12 62 -50 219 -84 350 -33 131 -73 344 -87 475 -14 131 -44 389 -66 575 -42 354 -36 1325 11 1763 11 110 34 323 50 475 16 151 52 387 80 525 28 137 61 323 73 412 25 185 77 426 168 788 35 137 68 278 75 312 6 34 28 119 48 188 20 68 52 181 72 250 103 356 218 730 239 775 12 27 44 117 71 200 80 246 199 583 224 630 12 25 42 95 65 157 23 62 58 144 77 183 20 39 36 90 36 113 1 23 34 102 75 177 41 74 75 156 75 181 0 26 34 107 75 180 41 73 75 149 74 168 0 20 34 103 75 186 42 82 218 436 393 787 345 694 438 873 510 988 26 41 86 148 135 237 48 89 116 208 150 263 34 55 75 128 89 162 15 34 53 96 85 137 31 42 81 121 111 176 30 55 74 129 97 166 24 37 76 121 116 188 40 66 133 207 207 313 73 106 133 197 133 204 0 21 348 517 575 820 62 83 138 185 169 227 68 93 71 180 9 324 -76 179 -201 714 -228 983 -14 137 -38 317 -54 400 -38 203 -37 1682 2 1962 16 117 45 359 63 538 19 178 56 426 84 550 27 123 61 281 74 350 66 328 242 972 311 1137 14 34 52 141 84 238 96 286 134 384 199 513 34 67 62 134 62 149 0 14 35 102 77 194 79 172 96 206 235 469 44 82 95 178 113 212 18 34 43 79 55 100 11 21 49 95 84 166 34 71 79 143 99 160 20 16 37 39 37 49 0 116 745 1161 1290 1809 413 491 1240 1303 1654 1625 38 29 171 138 296 241 410 338 1443 1062 1698 1189 55 27 161 90 237 138 76 49 171 106 213 127 41 21 153 81 250 133 96 52 310 161 475 243 165 81 367 181 450 222 82 41 159 74 170 74 11 -1 88 33 171 74 83 41 164 75 180 75 16 0 96 34 179 75 82 41 167 75 188 75 21 0 116 33 212 74 96 41 195 75 219 75 25 1 70 17 100 36 31 19 140 54 243 78 103 24 200 54 216 66 16 13 134 50 263 83 128 33 279 71 334 86 55 14 189 43 300 65 110 23 225 51 257 64 31 12 121 29 200 37 202 20 626 85 733 113 50 12 162 24 250 26 88 1 227 11 310 21 191 24 596 31 647 11z m-10860 -18610 c26 0 54 -11 63 -25 8 -14 37 -25 63 -25 27 0 72 -23 100 -51 28 -28 66 -48 84 -44 18 4 64 -29 102 -75 44 -52 84 -77 110 -68 23 7 81 -8 129 -33 47 -26 100 -42 116 -36 16 5 42 -12 56 -40 18 -33 51 -49 101 -48 41 2 93 -13 116 -32 23 -19 74 -37 114 -39 39 -2 90 -18 112 -37 23 -19 73 -36 113 -38 39 -2 90 -18 112 -37 23 -19 104 -37 181 -41 77 -3 174 -10 216 -16 41 -5 89 -10 106 -12 59 -6 31 -50 -38 -58 -98 -11 -74 -56 36 -66 51 -4 106 -25 122 -47 24 -33 61 -37 219 -24 174 15 193 12 217 -33 15 -28 52 -50 86 -50 32 0 65 -17 73 -37 11 -30 65 -38 263 -38 197 0 251 -8 262 -37 13 -33 168 -38 1191 -38 1023 0 1178 5 1191 38 11 29 65 37 262 37 198 0 252 8 263 38 11 28 56 37 181 37 136 0 175 9 210 50 47 55 64 59 115 27 42 -26 43 -1522 2 -1563 -15 -15 -37 -6 -60 25 -33 45 -37 46 -52 5 -21 -55 -77 -57 -97 -5 -9 26 -32 34 -63 24 -31 -10 -56 -1 -71 25 -34 60 -3053 60 -3087 0 -13 -24 -41 -34 -66 -26 -63 19 -179 -104 -119 -127 64 -24 50 -50 -73 -139 -63 -45 -103 -86 -88 -91 32 -11 36 -80 5 -80 -13 0 -30 19 -38 41 -23 60 -146 -56 -127 -119 9 -28 -4 -54 -37 -71 -50 -27 -51 -47 -51 -864 0 -804 -2 -839 -50 -887 -60 -60 -90 -63 -110 -10 -10 25 -31 34 -56 25 -27 -11 -65 10 -110 61 l-69 77 -1518 -1 c-1389 -1 -1521 -5 -1549 -43 -17 -23 -44 -34 -60 -23 -18 11 -74 -27 -142 -97 -74 -74 -135 -114 -175 -114 -33 0 -61 -11 -61 -25 0 -14 23 -25 50 -25 65 0 65 -77 1 -219 -49 -107 -115 -139 -142 -68 -8 20 -22 37 -30 37 -9 0 -19 -992 -23 -2205 -6 -1925 -11 -2208 -44 -2227 -51 -28 -46 -74 15 -153 70 -88 47 -151 -46 -128 -91 23 -102 37 -50 66 53 29 58 72 9 72 -19 0 -41 17 -49 38 -8 20 -36 37 -62 37 -67 0 -183 97 -174 147 10 59 -93 153 -167 153 -55 0 -63 11 -63 88 0 70 -10 87 -50 87 -27 0 -50 11 -50 25 0 14 11 25 25 25 44 0 27 72 -52 219 -42 79 -80 172 -85 206 -5 34 -28 100 -51 145 -26 51 -36 107 -26 147 11 42 3 79 -24 108 -26 29 -42 98 -46 195 -3 82 -20 167 -37 188 -25 30 -32 253 -31 996 2 1194 0 1126 29 1161 13 16 28 115 34 221 6 106 25 210 43 231 17 21 34 106 37 188 3 81 20 166 38 187 17 21 34 104 37 184 3 82 23 172 45 205 21 33 33 67 24 75 -8 8 2 52 22 98 20 46 50 134 67 196 17 62 41 138 54 170 12 32 22 90 22 130 0 39 10 78 22 86 12 7 19 75 15 151 -8 138 15 175 59 97 20 -37 26 -36 53 14 16 31 23 73 15 93 -8 21 3 62 24 92 20 29 37 82 38 116 0 35 17 85 37 112 20 27 37 73 37 103 0 29 28 106 63 171 34 65 62 139 62 165 0 25 23 54 50 63 65 20 64 53 -3 70 -63 17 -52 70 23 104 30 13 65 56 78 94 14 38 42 69 63 69 22 0 39 11 39 25 0 14 -22 25 -50 25 -74 0 -61 39 37 118 49 38 88 88 88 110 0 23 17 55 38 72 21 18 32 50 25 72 -7 22 4 73 25 112 20 39 37 92 37 118 0 25 15 55 33 66 19 11 54 59 79 107 172 336 164 309 111 350 -32 26 -42 55 -32 94 21 80 58 69 76 -23 15 -73 18 -75 49 -32 19 25 34 94 34 153 0 86 9 108 44 108 62 1 160 111 141 160 -9 24 1 46 25 55 22 8 40 40 40 69 0 30 23 68 51 86 35 22 47 48 37 80 -11 32 1 56 36 74 40 22 51 52 51 138 0 120 31 160 89 112 20 -17 37 -20 38 -8 16 193 41 220 125 136 42 -42 98 -77 123 -77z m-5489 -1573 c17 -27 -9 -102 -36 -102 -24 0 -50 92 -31 111 21 21 51 17 67 -9z m11828 -1308 c7 -7 12 -1738 11 -3846 -1 -3263 -6 -3841 -36 -3887 -38 -58 -204 -111 -346 -111 -47 0 -152 -23 -233 -51 -81 -28 -232 -62 -335 -76 -103 -14 -238 -41 -300 -60 -62 -20 -225 -54 -362 -76 -138 -23 -328 -57 -422 -76 -95 -20 -235 -36 -313 -36 -77 0 -278 -13 -447 -30 -269 -26 -311 -25 -345 8 -34 35 -38 481 -37 4107 1 2331 11 4087 24 4111 20 38 150 41 1576 38 854 -1 1559 -8 1565 -15z m-3639 -2121 c0 -61 -58 -52 -71 10 -4 25 8 42 32 42 23 0 39 -21 39 -52z m-456 -132 c36 -35 52 -5912 17 -5969 -22 -35 -430 -6 -573 41 -55 18 -162 40 -238 49 -199 24 -499 86 -552 114 -24 13 -71 24 -103 24 -55 0 -202 42 -395 114 -48 18 -121 40 -162 49 -40 8 -132 43 -202 76 -71 34 -143 61 -160 61 -34 0 -313 140 -376 188 -21 16 -88 49 -150 73 -62 23 -143 72 -181 108 l-69 65 0 2494 c0 2406 2 2495 47 2527 68 48 3049 34 3097 -14z m-3523 -301 c10 -50 -42 -121 -74 -101 -26 16 -30 120 -5 145 27 27 70 4 79 -44z m-324 -4313 c44 -28 14 -77 -47 -77 -54 0 -85 38 -62 75 18 31 63 32 109 2z"/><default:path d="M26838 30502 c-111 -10 -268 -32 -350 -49 -83 -17 -212 -42 -288 -56 -285 -51 -1077 -295 -1237 -381 -42 -23 -93 -41 -115 -41 -61 0 -1110 -531 -1323 -669 -103 -67 -238 -153 -300 -190 -62 -37 -231 -152 -375 -254 -144 -103 -307 -217 -362 -253 -55 -37 -140 -99 -188 -137 -48 -39 -211 -168 -362 -287 -152 -119 -337 -272 -413 -339 -76 -67 -155 -136 -177 -153 -38 -29 -229 -208 -658 -618 -383 -365 -1175 -1215 -1486 -1595 -46 -56 -105 -128 -132 -160 -85 -101 -356 -439 -452 -563 -90 -116 -541 -668 -669 -819 -35 -41 -134 -147 -220 -236 -279 -288 -177 -453 120 -192 49 43 149 128 223 190 74 62 254 214 400 338 145 123 315 263 376 311 62 47 165 134 230 193 145 133 140 133 381 -4 109 -62 207 -113 219 -113 12 0 88 -34 170 -75 82 -41 163 -75 181 -76 17 0 99 -28 182 -63 82 -35 195 -72 250 -84 55 -11 190 -46 300 -77 183 -51 452 -89 1050 -148 309 -31 852 -12 1033 34 82 22 209 39 283 39 137 1 442 69 539 121 29 16 74 29 99 29 43 0 272 85 596 223 82 35 290 136 462 224 172 89 358 183 413 211 100 50 315 181 442 270 37 26 84 47 103 47 20 0 50 17 67 38 18 21 162 124 322 230 256 170 633 448 978 720 62 49 191 160 288 247 96 87 213 190 259 229 275 231 977 990 1164 1258 267 383 322 473 439 715 364 753 291 1244 -236 1587 -436 284 -1424 452 -2226 378z m1037 -702 c23 -43 52 -50 198 -50 130 0 175 -9 186 -37 9 -25 48 -38 113 -38 67 0 103 -13 113 -41 12 -29 35 -36 88 -26 52 11 83 1 115 -34 50 -55 87 -43 87 27 0 27 11 49 25 49 14 0 25 -18 25 -40 0 -22 28 -74 63 -115 76 -90 78 -121 9 -139 -51 -13 -53 -24 -39 -207 14 -180 11 -197 -39 -230 -49 -33 -51 -42 -20 -116 35 -86 13 -144 -27 -71 -32 56 -72 32 -72 -43 0 -32 -17 -65 -37 -73 -21 -8 -38 -36 -38 -62 0 -25 -31 -79 -68 -119 -37 -40 -65 -86 -61 -104 3 -17 -28 -64 -70 -105 -42 -41 -76 -90 -76 -109 0 -20 -20 -62 -44 -95 -24 -33 -57 -82 -72 -110 -16 -27 -43 -46 -60 -42 -17 4 -90 -52 -163 -124 -118 -117 -128 -134 -90 -162 34 -25 36 -36 9 -64 -28 -27 -39 -25 -66 11 -48 65 -64 54 -64 -43 0 -77 -8 -88 -62 -88 -50 0 -63 -13 -63 -59 0 -77 -63 -132 -107 -95 -24 20 -64 -6 -164 -107 -105 -106 -123 -136 -91 -148 57 -22 34 -74 -40 -91 -38 -9 -64 -35 -69 -71 -7 -48 -19 -55 -76 -42 -61 13 -68 8 -67 -55 1 -65 -5 -69 -101 -69 -88 0 -118 -16 -205 -105 -55 -57 -127 -108 -159 -112 -32 -5 -53 -20 -46 -33 12 -24 23 -29 94 -35 53 -5 34 -49 -25 -58 -31 -4 -68 -33 -81 -65 -22 -49 -38 -56 -106 -43 -61 11 -92 3 -133 -38 -29 -29 -68 -47 -86 -40 -18 7 -65 -26 -104 -74 -42 -50 -86 -80 -107 -72 -21 8 -83 -37 -155 -114 -68 -72 -133 -120 -148 -111 -15 9 -65 -25 -111 -77 -55 -61 -97 -88 -123 -78 -24 9 -49 -4 -66 -35 -18 -34 -42 -46 -74 -35 -32 10 -56 -2 -75 -38 -19 -36 -43 -48 -75 -37 -32 10 -56 -2 -75 -39 -19 -34 -43 -47 -69 -38 -26 10 -66 -13 -115 -66 -41 -46 -98 -82 -127 -82 -38 0 -50 -14 -44 -54 7 -54 -37 -71 -241 -91 -31 -3 -69 -26 -83 -50 -16 -29 -41 -40 -71 -30 -32 10 -56 -2 -75 -38 -23 -42 -43 -49 -112 -36 -69 13 -89 7 -113 -39 -18 -34 -43 -48 -68 -39 -22 8 -61 -5 -88 -29 -33 -30 -84 -43 -159 -40 -87 3 -116 -6 -136 -45 -22 -39 -43 -46 -111 -33 -69 13 -89 6 -112 -37 -25 -47 -43 -52 -152 -37 -100 13 -126 9 -139 -24 -20 -53 -164 -141 -231 -141 -29 0 -64 23 -79 50 -35 66 -236 71 -306 8 -36 -33 -94 -43 -256 -43 -163 0 -221 10 -257 43 -39 35 -100 42 -349 42 -247 0 -307 7 -334 40 -27 33 -63 38 -175 26 -122 -12 -148 -7 -188 36 -38 43 -64 49 -163 35 -104 -14 -121 -10 -146 37 -24 43 -43 50 -113 37 -70 -13 -89 -7 -113 39 -24 46 -43 52 -113 39 -69 -13 -89 -6 -112 36 -23 42 -43 49 -112 36 -69 -13 -89 -6 -112 37 -33 62 -69 66 -129 12 -55 -50 -97 -26 -97 54 0 34 -11 61 -25 61 -46 0 -26 54 25 68 57 15 62 35 22 75 -15 15 -20 40 -11 55 25 40 89 33 89 -10 0 -21 11 -38 25 -38 14 0 25 12 25 26 0 15 35 59 78 98 46 42 70 83 60 101 -11 18 30 75 106 146 68 64 131 145 140 179 27 105 108 193 144 156 35 -34 447 358 447 427 0 20 16 49 36 66 20 16 40 70 44 120 10 114 60 133 83 31 l17 -78 207 207 c183 182 203 211 167 237 -47 35 -21 74 57 88 27 5 56 36 64 69 17 73 69 97 90 42 28 -74 87 -41 297 165 184 181 204 209 167 236 -76 56 6 106 93 56 69 -40 71 -39 173 69 57 60 122 109 146 109 23 0 91 51 150 113 60 61 127 112 149 112 23 0 113 73 201 162 89 89 175 155 193 148 18 -6 83 44 146 114 76 85 126 122 152 112 25 -9 50 5 68 38 18 35 43 49 72 39 54 -17 213 148 215 222 1 58 115 98 218 76 51 -11 73 -2 95 39 19 36 43 48 75 38 32 -11 56 1 75 37 19 36 43 48 75 38 32 -11 56 1 75 37 19 36 43 48 75 38 32 -11 56 1 75 38 18 33 43 47 68 38 22 -8 57 1 79 21 22 20 80 40 128 44 81 8 88 15 95 102 9 104 42 116 199 71 69 -20 85 -16 108 26 14 28 40 45 56 40 16 -6 71 12 123 38 63 33 116 43 167 32 58 -13 79 -6 100 33 25 46 45 49 264 36 205 -12 239 -9 253 27 13 34 56 41 261 41 192 0 251 8 267 37 17 30 112 38 533 44 281 4 525 10 542 13 17 3 42 -17 57 -44z m-6281 -5319 c6 -17 -8 -38 -29 -46 -61 -23 -165 11 -165 54 0 48 178 41 194 -8z"/><default:path d="M13113 20001 c-17 -54 1 -101 38 -101 31 0 31 118 1 136 -13 8 -31 -8 -39 -35z"/><default:path d="M23136 13748 c-18 -30 10 -296 35 -335 19 -29 51 282 34 331 -13 38 -46 40 -69 4z"/><default:path d="M23175 12988 c0 -121 9 -185 25 -175 14 8 25 87 25 175 0 87 -11 166 -25 175 -16 9 -25 -55 -25 -175z"/><default:path d="M23175 12275 c0 -196 9 -297 25 -287 14 8 25 133 25 287 0 154 -11 279 -25 288 -16 9 -25 -92 -25 -288z"/><default:path d="M23175 11805 c0 -58 11 -105 25 -105 41 0 40 143 -2 186 -14 15 -23 -17 -23 -81z"/><default:path d="M17400 12500 c0 -41 11 -75 25 -75 14 0 25 34 25 75 0 41 -11 75 -25 75 -14 0 -25 -34 -25 -75z"/><default:path d="M19225 11341 c0 -59 71 -104 89 -58 9 22 8 51 -1 66 -23 38 -88 32 -88 -8z"/></default:g></svg>